<svg xmlns="http://www.w3.org/2000/svg" width="1060" height="2800" viewBox="0 0 1060 2800">
  <defs>
    <style>
      @import url('https://fonts.googleapis.com/css2?family=Inter:wght@400;600;700;800&amp;family=Noto+Sans+KR:wght@300;400;500;700&amp;display=swap');
      .font-head { font-family: 'Inter', 'Noto Sans KR', sans-serif; }
      .font-body { font-family: 'Noto Sans KR', 'Inter', sans-serif; }
    </style>
    <linearGradient id="heroGrad" x1="0" y1="0" x2="1060" y2="300" gradientUnits="userSpaceOnUse">
      <stop offset="0%" stop-color="#0066CC"/>
      <stop offset="100%" stop-color="#004C99"/>
    </linearGradient>
    <linearGradient id="ctaGrad" x1="0" y1="0" x2="1" y2="1">
      <stop offset="0%" stop-color="#0066CC"/>
      <stop offset="100%" stop-color="#004C99"/>
    </linearGradient>
  </defs>

  <!-- BG -->
  <rect width="1060" height="2800" fill="#F7F8FC"/>

  <!-- ===== GNB ===== -->
  <rect width="1060" height="64" fill="#fff" stroke="#E2E4EA" stroke-width="1"/>
  <text x="40" y="38" class="font-head" font-size="20" font-weight="800" fill="#1A1A2E">T-Rise<tspan fill="#22C55E">Up</tspan></text>
  <text x="670" y="37" class="font-body" font-size="14" font-weight="500" fill="#4A4A68">제품 ▾</text>
  <text x="740" y="37" class="font-body" font-size="14" font-weight="500" fill="#4A4A68">도입사례</text>
  <rect x="840" y="20" width="120" height="32" rx="6" fill="#0066CC"/>
  <text x="872" y="41" class="font-body" font-size="13" font-weight="600" fill="#fff">무료 데모 신청</text>

  <!-- ===== HERO (64~300) ===== -->
  <rect y="64" width="1060" height="236" fill="url(#heroGrad)"/>
  <rect x="0" y="280" width="1060" height="20" rx="20" fill="#F7F8FC"/>
  <text x="530" y="160" class="font-head" font-size="42" font-weight="800" fill="#fff" text-anchor="middle" letter-spacing="-0.02em">Rise Up Stories</text>
  <text x="530" y="200" class="font-body" font-size="16" fill="rgba(255,255,255,0.8)" text-anchor="middle">다양한 산업에서 T-RiseUp으로 성과를 만들어 낸 이야기</text>
  <text x="530" y="230" class="font-body" font-size="14" fill="rgba(255,255,255,0.6)" text-anchor="middle">국가행사부터 글로벌 이벤트까지 — 현장에서 검증된 18건의 사례</text>

  <!-- ===== Filter Tabs (310~360) ===== -->
  <rect x="0" y="310" width="1060" height="50" fill="#fff" stroke="#E2E4EA" stroke-width="0 0 1 0"/>
  <!-- Active -->
  <rect x="40" y="318" width="80" height="34" rx="17" fill="#0066CC"/>
  <text x="80" y="340" class="font-body" font-size="13" font-weight="600" fill="#fff" text-anchor="middle">전체(18)</text>
  <!-- Inactive tabs -->
  <rect x="130" y="318" width="90" height="34" rx="17" fill="#F7F8FC" stroke="#E2E4EA"/>
  <text x="175" y="340" class="font-body" font-size="12" fill="#4A4A68" text-anchor="middle">국가행사(3)</text>
  <rect x="230" y="318" width="100" height="34" rx="17" fill="#F7F8FC" stroke="#E2E4EA"/>
  <text x="280" y="340" class="font-body" font-size="12" fill="#4A4A68" text-anchor="middle">국제스포츠(3)</text>
  <rect x="340" y="318" width="115" height="34" rx="17" fill="#F7F8FC" stroke="#E2E4EA"/>
  <text x="397" y="340" class="font-body" font-size="12" fill="#4A4A68" text-anchor="middle">카지노·리조트(1)</text>
  <rect x="465" y="318" width="70" height="34" rx="17" fill="#F7F8FC" stroke="#E2E4EA"/>
  <text x="500" y="340" class="font-body" font-size="12" fill="#4A4A68" text-anchor="middle">해외(2)</text>
  <rect x="545" y="318" width="90" height="34" rx="17" fill="#F7F8FC" stroke="#E2E4EA"/>
  <text x="590" y="340" class="font-body" font-size="12" fill="#4A4A68" text-anchor="middle">공공통근(3)</text>
  <rect x="645" y="318" width="90" height="34" rx="17" fill="#F7F8FC" stroke="#E2E4EA"/>
  <text x="690" y="340" class="font-body" font-size="12" fill="#4A4A68" text-anchor="middle">관광레저(3)</text>
  <rect x="745" y="318" width="110" height="34" rx="17" fill="#F7F8FC" stroke="#E2E4EA"/>
  <text x="800" y="340" class="font-body" font-size="12" fill="#4A4A68" text-anchor="middle">스포츠·엔터(1)</text>
  <rect x="865" y="318" width="130" height="34" rx="17" fill="#F7F8FC" stroke="#E2E4EA"/>
  <text x="930" y="340" class="font-body" font-size="12" fill="#4A4A68" text-anchor="middle">아파트·멤버십(1)</text>
  <!-- Overflow indicator for 면허솔루션 -->
  <text x="1020" y="340" class="font-body" font-size="12" fill="#8888A0" text-anchor="middle">+1</text>

  <!-- ===== 18 Case Cards (380~2200) 3-column grid ===== -->
  <!-- Row 1 -->
  <g transform="translate(40,385)">
    <rect width="305" height="260" rx="12" fill="#fff" stroke="#E2E4EA"/>
    <rect x="12" y="12" width="30" height="22" rx="4" fill="rgba(0,102,204,0.08)"/>
    <text x="27" y="28" class="font-body" font-size="11" font-weight="600" fill="#0066CC" text-anchor="middle">PMS</text>
    <rect x="12" y="44" width="281" height="80" rx="8" fill="#E2E4EA"/>
    <text x="12" y="148" class="font-body" font-size="16" font-weight="700" fill="#1A1A2E">APEC 2025 경호수송</text>
    <text x="12" y="170" class="font-body" font-size="13" font-weight="600" fill="#0066CC">21개국 정상 · 100% 정시율</text>
    <text x="12" y="195" class="font-body" font-size="12" fill="#4A4A68">21개국 정상급 의전, 사고 0건</text>
    <text x="12" y="215" class="font-body" font-size="12" fill="#4A4A68">AI 배차 실시간 관제</text>
    <text x="12" y="242" class="font-body" font-size="12" font-weight="600" fill="#0066CC">자세히 보기 →</text>
  </g>
  <g transform="translate(377,385)">
    <rect width="305" height="260" rx="12" fill="#fff" stroke="#E2E4EA"/>
    <rect x="12" y="12" width="30" height="22" rx="4" fill="rgba(0,102,204,0.08)"/>
    <text x="27" y="28" class="font-body" font-size="11" font-weight="600" fill="#0066CC" text-anchor="middle">PMS</text>
    <rect x="12" y="44" width="281" height="80" rx="8" fill="#E2E4EA"/>
    <text x="12" y="148" class="font-body" font-size="16" font-weight="700" fill="#1A1A2E">ADB 연차총회 2025</text>
    <text x="12" y="170" class="font-body" font-size="13" font-weight="600" fill="#0066CC">5,000명 · 대규모 VIP 수송</text>
    <text x="12" y="195" class="font-body" font-size="12" fill="#4A4A68">다국적 VIP 의전 · 공항 연계</text>
    <text x="12" y="215" class="font-body" font-size="12" fill="#4A4A68">항공편 연동 자동 배차</text>
    <text x="12" y="242" class="font-body" font-size="12" font-weight="600" fill="#0066CC">자세히 보기 →</text>
  </g>
  <g transform="translate(714,385)">
    <rect width="305" height="260" rx="12" fill="#fff" stroke="#E2E4EA"/>
    <rect x="12" y="12" width="30" height="22" rx="4" fill="rgba(0,102,204,0.08)"/>
    <text x="27" y="28" class="font-body" font-size="11" font-weight="600" fill="#0066CC" text-anchor="middle">PMS</text>
    <rect x="12" y="44" width="281" height="80" rx="8" fill="#E2E4EA"/>
    <text x="12" y="148" class="font-body" font-size="16" font-weight="700" fill="#1A1A2E">부산세계탁구선수권대회</text>
    <text x="12" y="170" class="font-body" font-size="13" font-weight="600" fill="#0066CC">990회 운행 · 7톤 CO2 감축</text>
    <text x="12" y="195" class="font-body" font-size="12" fill="#4A4A68">AI 배차로 990회 운행 완료</text>
    <text x="12" y="215" class="font-body" font-size="12" fill="#4A4A68">공식 백서 인용 사례</text>
    <text x="12" y="242" class="font-body" font-size="12" font-weight="600" fill="#0066CC">자세히 보기 →</text>
  </g>

  <!-- Row 2 -->
  <g transform="translate(40,665)">
    <rect width="305" height="260" rx="12" fill="#fff" stroke="#E2E4EA"/>
    <rect x="12" y="12" width="30" height="22" rx="4" fill="rgba(0,102,204,0.08)"/>
    <text x="27" y="28" class="font-body" font-size="11" font-weight="600" fill="#0066CC" text-anchor="middle">PMS</text>
    <rect x="12" y="44" width="281" height="80" rx="8" fill="#E2E4EA"/>
    <text x="12" y="148" class="font-body" font-size="16" font-weight="700" fill="#1A1A2E">AFC Awards 2024</text>
    <text x="12" y="170" class="font-body" font-size="13" font-weight="600" fill="#0066CC">아시아축구연맹 · VIP 의전</text>
    <text x="12" y="195" class="font-body" font-size="12" fill="#4A4A68">국제 VIP 수송 운영</text>
    <text x="12" y="215" class="font-body" font-size="12" fill="#4A4A68">실시간 GPS 관제 운영</text>
    <text x="12" y="242" class="font-body" font-size="12" font-weight="600" fill="#0066CC">자세히 보기 →</text>
  </g>
  <g transform="translate(377,665)">
    <rect width="305" height="260" rx="12" fill="#fff" stroke="#E2E4EA"/>
    <rect x="12" y="12" width="30" height="22" rx="4" fill="rgba(0,102,204,0.08)"/>
    <text x="27" y="28" class="font-body" font-size="11" font-weight="600" fill="#0066CC" text-anchor="middle">PMS</text>
    <rect x="12" y="44" width="281" height="80" rx="8" fill="#E2E4EA"/>
    <text x="12" y="148" class="font-body" font-size="16" font-weight="700" fill="#1A1A2E">제주드림타워</text>
    <text x="12" y="170" class="font-body" font-size="13" font-weight="600" fill="#0066CC">카지노 VIP · 월 2,000건+</text>
    <text x="12" y="195" class="font-body" font-size="12" fill="#4A4A68">VIP 의전 자동화 운영</text>
    <text x="12" y="215" class="font-body" font-size="12" fill="#4A4A68">24시간 배차 관제 시스템</text>
    <text x="12" y="242" class="font-body" font-size="12" font-weight="600" fill="#0066CC">자세히 보기 →</text>
  </g>
  <g transform="translate(714,665)">
    <rect width="305" height="260" rx="12" fill="#fff" stroke="#E2E4EA"/>
    <rect x="12" y="12" width="30" height="22" rx="4" fill="rgba(0,102,204,0.08)"/>
    <text x="27" y="28" class="font-body" font-size="11" font-weight="600" fill="#0066CC" text-anchor="middle">PMS</text>
    <rect x="12" y="44" width="281" height="80" rx="8" fill="#E2E4EA"/>
    <text x="12" y="148" class="font-body" font-size="16" font-weight="700" fill="#1A1A2E">GB Limousine</text>
    <text x="12" y="170" class="font-body" font-size="13" font-weight="600" fill="#0066CC">해외 수송 · 글로벌 운영</text>
    <text x="12" y="195" class="font-body" font-size="12" fill="#4A4A68">해외 리무진 수송 서비스</text>
    <text x="12" y="215" class="font-body" font-size="12" fill="#4A4A68">글로벌 PMS 운영 사례</text>
    <text x="12" y="242" class="font-body" font-size="12" font-weight="600" fill="#0066CC">자세히 보기 →</text>
  </g>

  <!-- Row 3 -->
  <g transform="translate(40,945)">
    <rect width="305" height="260" rx="12" fill="#fff" stroke="#E2E4EA"/>
    <rect x="12" y="12" width="30" height="22" rx="4" fill="rgba(0,102,204,0.08)"/>
    <text x="27" y="28" class="font-body" font-size="11" font-weight="600" fill="#0066CC" text-anchor="middle">TMS</text>
    <rect x="12" y="44" width="281" height="80" rx="8" fill="#E2E4EA"/>
    <text x="12" y="148" class="font-body" font-size="16" font-weight="700" fill="#1A1A2E">블랙핑크 2025 월드투어</text>
    <text x="12" y="170" class="font-body" font-size="13" font-weight="600" fill="#0066CC">5,000명 · 14거점 · 4개국어</text>
    <text x="12" y="195" class="font-body" font-size="12" fill="#4A4A68">전 세계 14개 거점 다국어 셔틀</text>
    <text x="12" y="215" class="font-body" font-size="12" fill="#4A4A68">QR 검표 · 글로벌 결제</text>
    <text x="12" y="242" class="font-body" font-size="12" font-weight="600" fill="#0066CC">자세히 보기 →</text>
  </g>
  <g transform="translate(377,945)">
    <rect width="305" height="260" rx="12" fill="#fff" stroke="#E2E4EA"/>
    <rect x="12" y="12" width="62" height="22" rx="4" fill="rgba(0,102,204,0.08)"/>
    <text x="43" y="28" class="font-body" font-size="11" font-weight="600" fill="#0066CC" text-anchor="middle">TMS+TIS</text>
    <rect x="12" y="44" width="281" height="80" rx="8" fill="#E2E4EA"/>
    <text x="12" y="148" class="font-body" font-size="16" font-weight="700" fill="#1A1A2E">부산산단셔틀</text>
    <text x="12" y="170" class="font-body" font-size="13" font-weight="600" fill="#0066CC">월 50,000명 · 50개 노선</text>
    <text x="12" y="195" class="font-body" font-size="12" fill="#4A4A68">50개 노선 QR 검표 관리</text>
    <text x="12" y="215" class="font-body" font-size="12" fill="#4A4A68">공공 통근 셔틀 사례</text>
    <text x="12" y="242" class="font-body" font-size="12" font-weight="600" fill="#0066CC">자세히 보기 →</text>
  </g>
  <g transform="translate(714,945)">
    <rect width="305" height="260" rx="12" fill="#fff" stroke="#E2E4EA"/>
    <rect x="12" y="12" width="30" height="22" rx="4" fill="rgba(0,102,204,0.08)"/>
    <text x="27" y="28" class="font-body" font-size="11" font-weight="600" fill="#0066CC" text-anchor="middle">TMS</text>
    <rect x="12" y="44" width="281" height="80" rx="8" fill="#E2E4EA"/>
    <text x="12" y="148" class="font-body" font-size="16" font-weight="700" fill="#1A1A2E">에버랜드 셔틀</text>
    <text x="12" y="170" class="font-body" font-size="13" font-weight="600" fill="#0066CC">주말 10,000명+ 수송</text>
    <text x="12" y="195" class="font-body" font-size="12" fill="#4A4A68">테마파크 대규모 셔틀</text>
    <text x="12" y="215" class="font-body" font-size="12" fill="#4A4A68">실시간 배차 · QR 검표</text>
    <text x="12" y="242" class="font-body" font-size="12" font-weight="600" fill="#0066CC">자세히 보기 →</text>
  </g>

  <!-- Row 4 -->
  <g transform="translate(40,1225)">
    <rect width="305" height="260" rx="12" fill="#fff" stroke="#E2E4EA"/>
    <rect x="12" y="12" width="30" height="22" rx="4" fill="rgba(0,102,204,0.08)"/>
    <text x="27" y="28" class="font-body" font-size="11" font-weight="600" fill="#0066CC" text-anchor="middle">TMS</text>
    <rect x="12" y="44" width="281" height="80" rx="8" fill="#E2E4EA"/>
    <text x="12" y="148" class="font-body" font-size="16" font-weight="700" fill="#1A1A2E">금호고속 관광</text>
    <text x="12" y="170" class="font-body" font-size="13" font-weight="600" fill="#0066CC">전세 관광 · 예약 자동화</text>
    <text x="12" y="195" class="font-body" font-size="12" fill="#4A4A68">전세버스 예약·발권 자동화</text>
    <text x="12" y="215" class="font-body" font-size="12" fill="#4A4A68">온라인 판매 채널 구축</text>
    <text x="12" y="242" class="font-body" font-size="12" font-weight="600" fill="#0066CC">자세히 보기 →</text>
  </g>
  <g transform="translate(377,1225)">
    <rect width="305" height="260" rx="12" fill="#fff" stroke="#E2E4EA"/>
    <rect x="12" y="12" width="30" height="22" rx="4" fill="rgba(0,102,204,0.08)"/>
    <text x="27" y="28" class="font-body" font-size="11" font-weight="600" fill="#0066CC" text-anchor="middle">TMS</text>
    <rect x="12" y="44" width="281" height="80" rx="8" fill="#E2E4EA"/>
    <text x="12" y="148" class="font-body" font-size="16" font-weight="700" fill="#1A1A2E">제주 관광셔틀</text>
    <text x="12" y="170" class="font-body" font-size="13" font-weight="600" fill="#0066CC">다국어 예약 · 글로벌 결제</text>
    <text x="12" y="195" class="font-body" font-size="12" fill="#4A4A68">관광객 대상 셔틀 운영</text>
    <text x="12" y="215" class="font-body" font-size="12" fill="#4A4A68">4개국어 예약 페이지</text>
    <text x="12" y="242" class="font-body" font-size="12" font-weight="600" fill="#0066CC">자세히 보기 →</text>
  </g>
  <g transform="translate(714,1225)">
    <rect width="305" height="260" rx="12" fill="#fff" stroke="#E2E4EA"/>
    <rect x="12" y="12" width="62" height="22" rx="4" fill="rgba(0,102,204,0.08)"/>
    <text x="43" y="28" class="font-body" font-size="11" font-weight="600" fill="#0066CC" text-anchor="middle">TMS+TIS</text>
    <rect x="12" y="44" width="281" height="80" rx="8" fill="#E2E4EA"/>
    <text x="12" y="148" class="font-body" font-size="16" font-weight="700" fill="#1A1A2E">서울 통근셔틀</text>
    <text x="12" y="170" class="font-body" font-size="13" font-weight="600" fill="#0066CC">기업 통근 · 정기권 관리</text>
    <text x="12" y="195" class="font-body" font-size="12" fill="#4A4A68">기업 통근 셔틀 QR 검표</text>
    <text x="12" y="215" class="font-body" font-size="12" fill="#4A4A68">정기권 · 회원 관리</text>
    <text x="12" y="242" class="font-body" font-size="12" font-weight="600" fill="#0066CC">자세히 보기 →</text>
  </g>

  <!-- Row 5 -->
  <g transform="translate(40,1505)">
    <rect width="305" height="260" rx="12" fill="#fff" stroke="#E2E4EA"/>
    <rect x="12" y="12" width="62" height="22" rx="4" fill="rgba(0,102,204,0.08)"/>
    <text x="43" y="28" class="font-body" font-size="11" font-weight="600" fill="#0066CC" text-anchor="middle">TMS+TIS</text>
    <rect x="12" y="44" width="281" height="80" rx="8" fill="#E2E4EA"/>
    <text x="12" y="148" class="font-body" font-size="16" font-weight="700" fill="#1A1A2E">검암로열파크 셔틀</text>
    <text x="12" y="170" class="font-body" font-size="13" font-weight="600" fill="#0066CC">아파트 멤버십 셔틀</text>
    <text x="12" y="195" class="font-body" font-size="12" fill="#4A4A68">아파트 입주민 전용 셔틀</text>
    <text x="12" y="215" class="font-body" font-size="12" fill="#4A4A68">멤버십 기반 탑승 관리</text>
    <text x="12" y="242" class="font-body" font-size="12" font-weight="600" fill="#0066CC">자세히 보기 →</text>
  </g>
  <g transform="translate(377,1505)">
    <rect width="305" height="260" rx="12" fill="#fff" stroke="#E2E4EA"/>
    <rect x="12" y="12" width="30" height="22" rx="4" fill="rgba(0,102,204,0.08)"/>
    <text x="27" y="28" class="font-body" font-size="11" font-weight="600" fill="#0066CC" text-anchor="middle">PMS</text>
    <rect x="12" y="44" width="281" height="80" rx="8" fill="#E2E4EA"/>
    <text x="12" y="148" class="font-body" font-size="16" font-weight="700" fill="#1A1A2E">Jpark 리조트</text>
    <text x="12" y="170" class="font-body" font-size="13" font-weight="600" fill="#0066CC">해외 리조트 · 의전 수송</text>
    <text x="12" y="195" class="font-body" font-size="12" fill="#4A4A68">필리핀 리조트 VIP 의전</text>
    <text x="12" y="215" class="font-body" font-size="12" fill="#4A4A68">해외 운영 PMS 사례</text>
    <text x="12" y="242" class="font-body" font-size="12" font-weight="600" fill="#0066CC">자세히 보기 →</text>
  </g>
  <g transform="translate(714,1505)">
    <rect width="305" height="260" rx="12" fill="#fff" stroke="#E2E4EA"/>
    <rect x="12" y="12" width="50" height="22" rx="4" fill="rgba(0,102,204,0.08)"/>
    <text x="37" y="28" class="font-body" font-size="11" font-weight="600" fill="#0066CC" text-anchor="middle">면허</text>
    <rect x="12" y="44" width="281" height="80" rx="8" fill="#E2E4EA"/>
    <text x="12" y="148" class="font-body" font-size="16" font-weight="700" fill="#1A1A2E">WIZMO</text>
    <text x="12" y="170" class="font-body" font-size="13" font-weight="600" fill="#0066CC">타입1 면허 취득 성공</text>
    <text x="12" y="195" class="font-body" font-size="12" fill="#4A4A68">T-RiseUp 기반 면허 취득</text>
    <text x="12" y="215" class="font-body" font-size="12" fill="#4A4A68">국토부 9개 영역 심사 통과</text>
    <text x="12" y="242" class="font-body" font-size="12" font-weight="600" fill="#0066CC">자세히 보기 →</text>
  </g>

  <!-- Row 6 -->
  <g transform="translate(40,1785)">
    <rect width="305" height="260" rx="12" fill="#fff" stroke="#E2E4EA"/>
    <rect x="12" y="12" width="30" height="22" rx="4" fill="rgba(0,102,204,0.08)"/>
    <text x="27" y="28" class="font-body" font-size="11" font-weight="600" fill="#0066CC" text-anchor="middle">TMS</text>
    <rect x="12" y="44" width="281" height="80" rx="8" fill="#E2E4EA"/>
    <text x="12" y="148" class="font-body" font-size="16" font-weight="700" fill="#1A1A2E">SBS 러닝맨 투어셔틀</text>
    <text x="12" y="170" class="font-body" font-size="13" font-weight="600" fill="#0066CC">엔터테인먼트 · 팬 수송</text>
    <text x="12" y="195" class="font-body" font-size="12" fill="#4A4A68">팬 대상 셔틀 예약·발권</text>
    <text x="12" y="215" class="font-body" font-size="12" fill="#4A4A68">QR 검표 · 다국어 지원</text>
    <text x="12" y="242" class="font-body" font-size="12" font-weight="600" fill="#0066CC">자세히 보기 →</text>
  </g>
  <g transform="translate(377,1785)">
    <rect width="305" height="260" rx="12" fill="#fff" stroke="#E2E4EA"/>
    <rect x="12" y="12" width="30" height="22" rx="4" fill="rgba(0,102,204,0.08)"/>
    <text x="27" y="28" class="font-body" font-size="11" font-weight="600" fill="#0066CC" text-anchor="middle">TMS</text>
    <rect x="12" y="44" width="281" height="80" rx="8" fill="#E2E4EA"/>
    <text x="12" y="148" class="font-body" font-size="16" font-weight="700" fill="#1A1A2E">부산경제진흥원 셔틀</text>
    <text x="12" y="170" class="font-body" font-size="13" font-weight="600" fill="#0066CC">공공기관 · 통근 셔틀</text>
    <text x="12" y="195" class="font-body" font-size="12" fill="#4A4A68">공공기관 통근 운영 자동화</text>
    <text x="12" y="215" class="font-body" font-size="12" fill="#4A4A68">실시간 배차 · 정산</text>
    <text x="12" y="242" class="font-body" font-size="12" font-weight="600" fill="#0066CC">자세히 보기 →</text>
  </g>
  <g transform="translate(714,1785)">
    <rect width="305" height="260" rx="12" fill="#fff" stroke="#E2E4EA"/>
    <rect x="12" y="12" width="30" height="22" rx="4" fill="rgba(0,102,204,0.08)"/>
    <text x="27" y="28" class="font-body" font-size="11" font-weight="600" fill="#0066CC" text-anchor="middle">PMS</text>
    <rect x="12" y="44" width="281" height="80" rx="8" fill="#E2E4EA"/>
    <text x="12" y="148" class="font-body" font-size="16" font-weight="700" fill="#1A1A2E">KCA 한국카지노관광협회</text>
    <text x="12" y="170" class="font-body" font-size="13" font-weight="600" fill="#0066CC">카지노 VIP · 의전 관리</text>
    <text x="12" y="195" class="font-body" font-size="12" fill="#4A4A68">카지노 VIP 의전 수송 관리</text>
    <text x="12" y="215" class="font-body" font-size="12" fill="#4A4A68">회원사 통합 배차 시스템</text>
    <text x="12" y="242" class="font-body" font-size="12" font-weight="600" fill="#0066CC">자세히 보기 →</text>
  </g>

  <!-- ===== CTA Band ===== -->
  <rect y="2100" width="1060" height="140" fill="url(#ctaGrad)"/>
  <text x="530" y="2155" class="font-head" font-size="28" font-weight="800" fill="#fff" text-anchor="middle">T-RiseUp으로 성과를 만들어 보세요</text>
  <text x="530" y="2185" class="font-body" font-size="16" fill="rgba(255,255,255,0.8)" text-anchor="middle">무료 데모를 통해 귀사에 맞는 솔루션을 직접 경험하세요.</text>
  <rect x="440" y="2200" width="180" height="44" rx="10" fill="#fff"/>
  <text x="530" y="2227" class="font-body" font-size="16" font-weight="600" fill="#0066CC" text-anchor="middle">무료 데모 신청</text>

  <!-- ===== Footer ===== -->
  <rect y="2290" width="1060" height="170" fill="#1A1F2E"/>
  <text x="40" y="2330" class="font-head" font-size="18" font-weight="800" fill="#fff">T-Rise<tspan fill="#22C55E">Up</tspan></text>
  <text x="40" y="2355" class="font-body" font-size="13" fill="rgba(255,255,255,0.5)">(주)그라운드케이 | 대표이사: 홍길동</text>
  <text x="40" y="2375" class="font-body" font-size="13" fill="rgba(255,255,255,0.4)">부산광역시 해운대구 | TEL: 051-000-0000</text>
  <text x="500" y="2330" class="font-body" font-size="14" font-weight="700" fill="#fff">제품</text>
  <text x="500" y="2355" class="font-body" font-size="14" fill="rgba(255,255,255,0.5)">PMS — 의전·수송</text>
  <text x="500" y="2375" class="font-body" font-size="14" fill="rgba(255,255,255,0.5)">TMS — 셔틀·관광</text>
  <text x="500" y="2395" class="font-body" font-size="14" fill="rgba(255,255,255,0.5)">면허 솔루션</text>
  <text x="500" y="2415" class="font-body" font-size="14" fill="rgba(255,255,255,0.5)">Marketplace</text>
  <text x="750" y="2330" class="font-body" font-size="14" font-weight="700" fill="#fff">약관</text>
  <text x="750" y="2355" class="font-body" font-size="14" fill="rgba(255,255,255,0.5)">개인정보처리방침</text>
  <text x="750" y="2375" class="font-body" font-size="14" fill="rgba(255,255,255,0.5)">이용약관</text>
  <text x="750" y="2395" class="font-body" font-size="14" fill="rgba(255,255,255,0.5)">위치 기반 서비스 이용약관</text>
  <line x1="40" y1="2430" x2="1020" y2="2430" stroke="rgba(255,255,255,0.1)"/>
  <text x="530" y="2452" class="font-body" font-size="13" fill="rgba(255,255,255,0.3)" text-anchor="middle">© 2026 GroundK. All rights reserved.</text>
</svg>